<svg width="59" height="58" viewBox="0 0 59 58" fill="none" xmlns="http://www.w3.org/2000/svg">
<g clip-path="url(#clip0_155_20)">
<path d="M53.0625 29C53.0625 22.7508 50.58 16.7576 46.1612 12.3388C41.7424 7.91997 35.7492 5.4375 29.5 5.4375C23.2508 5.4375 17.2576 7.91997 12.8388 12.3388C8.41997 16.7576 5.9375 22.7508 5.9375 29C5.9375 35.2492 8.41997 41.2424 12.8388 45.6612C17.2576 50.08 23.2508 52.5625 29.5 52.5625C35.7492 52.5625 41.7424 50.08 46.1612 45.6612C50.58 41.2424 53.0625 35.2492 53.0625 29ZM0.5 29C0.5 21.3087 3.55535 13.9325 8.9939 8.4939C14.4325 3.05535 21.8087 0 29.5 0C37.1913 0 44.5675 3.05535 50.0061 8.4939C55.4447 13.9325 58.5 21.3087 58.5 29C58.5 36.6913 55.4447 44.0675 50.0061 49.5061C44.5675 54.9447 37.1913 58 29.5 58C21.8087 58 14.4325 54.9447 8.9939 49.5061C3.55535 44.0675 0.5 36.6913 0.5 29ZM21.8309 16.6637C22.6918 16.1879 23.734 16.1992 24.5836 16.7203L40.8961 26.6891C41.7004 27.1875 42.1988 28.0598 42.1988 29.0113C42.1988 29.9629 41.7004 30.8352 40.8961 31.3336L24.5836 41.3023C23.7453 41.8121 22.6918 41.8348 21.8309 41.359C20.9699 40.8832 20.4375 39.977 20.4375 38.9914V19.0312C20.4375 18.0457 20.9699 17.1395 21.8309 16.6637Z" fill="#D92BAB"/>
</g>
<defs>
<clipPath id="clip0_155_20">
<rect width="58" height="58" fill="white" transform="translate(0.5)"/>
</clipPath>
</defs>
</svg>
